<?xml version="1.0" encoding="utf-8"?>
<!-- Generator: Adobe Illustrator 16.0.0, SVG Export Plug-In . SVG Version: 6.00 Build 0)  -->
<!DOCTYPE svg PUBLIC "-//W3C//DTD SVG 1.1//EN" "http://www.w3.org/Graphics/SVG/1.1/DTD/svg11.dtd">
<svg version="1.1" id="Layer_1" xmlns="http://www.w3.org/2000/svg" xmlns:xlink="http://www.w3.org/1999/xlink" x="0px" y="0px"
	 width="144.25px" height="31.5px" viewBox="0 0 144.25 31.5" enable-background="new 0 0 144.25 31.5" xml:space="preserve">
<g>
	<g>
		
			<image overflow="visible" opacity="0.4" width="259" height="55" xlink:href="B862016B75E1A2E7.png"  transform="matrix(0.24 0 0 0.24 -6 9.3672)">
		</image>
		<g>
			<g>
				<line fill="none" stroke="#AFAFAF" stroke-miterlimit="10" x1="0" y1="15.867" x2="50.004" y2="15.867"/>
			</g>
		</g>
	</g>
	<g>
		
			<image overflow="visible" opacity="0.4" width="259" height="55" xlink:href="B862016B75E1A2E5.png"  transform="matrix(0.24 0 0 0.24 88.2471 9.3672)">
		</image>
		<g>
			<g>
				<line fill="none" stroke="#AFAFAF" stroke-miterlimit="10" x1="94.247" y1="15.867" x2="144.25" y2="15.867"/>
			</g>
		</g>
	</g>
	<g>
		
			<image overflow="visible" opacity="0.25" width="165" height="123" xlink:href="B862016B75E1A2EB.png"  transform="matrix(0.24 0 0 0.24 53.2217 1.2041)">
		</image>
		<g>
			<g>
				<path fill="#AFAFAF" d="M63.668,20.162c-0.965-0.912-1.446-2.195-1.446-3.851s0.525-3.087,1.577-4.295
					c1.051-1.208,2.354-1.812,3.911-1.812c1.115,0,2.108,0.273,2.979,0.819s1.714,1.475,2.526,2.787l0.104-0.034
					c1.685-2.335,3.543-3.503,5.576-3.503c1.394,0,2.547,0.491,3.459,1.473c0.911,0.981,1.367,2.285,1.367,3.912
					c0,1.626-0.534,3-1.603,4.12c-1.069,1.121-2.353,1.682-3.851,1.682c-1.94,0-3.665-1.155-5.176-3.468h-0.104
					c-1.452,2.358-3.287,3.537-5.506,3.537C65.903,21.529,64.632,21.074,63.668,20.162z M66.821,12.277
					c-0.987,0-1.783,0.291-2.387,0.871c-0.604,0.581-0.906,1.409-0.906,2.483s0.427,1.963,1.28,2.666
					c0.854,0.703,1.83,1.054,2.928,1.054s2.059-0.212,2.884-0.636c0.824-0.424,1.446-0.949,1.864-1.577
					c-1.196-1.812-2.192-3.075-2.988-3.789C68.7,12.635,67.809,12.277,66.821,12.277z M73.826,14.77
					c1.045,1.649,2.006,2.843,2.884,3.58c0.877,0.738,1.786,1.106,2.727,1.106c0.941,0,1.708-0.331,2.3-0.993
					c0.593-0.662,0.889-1.457,0.889-2.387s-0.45-1.78-1.351-2.553s-1.907-1.159-3.022-1.159
					C76.672,12.364,75.196,13.166,73.826,14.77z"/>
			</g>
		</g>
	</g>
	<g>
		
			<image overflow="visible" opacity="0.25" width="84" height="84" xlink:href="B862016B75E1A2ED.png"  transform="matrix(0.24 0 0 0.24 62.9385 -5.5)">
		</image>
		<g>
			<circle fill="#AFAFAF" cx="72.972" cy="4.534" r="1.034"/>
		</g>
	</g>
	<g>
		
			<image overflow="visible" opacity="0.25" width="84" height="84" xlink:href="B862016B75E1A2EF.png"  transform="matrix(0.24 0 0 0.24 62.9385 18.2676)">
		</image>
		<g>
			<circle fill="#AFAFAF" cx="72.972" cy="28.302" r="1.034"/>
		</g>
	</g>
	<g>
		
			<image overflow="visible" opacity="0.25" width="84" height="84" xlink:href="B862016B75E1A2EC.png"  transform="matrix(0.24 0 0 0.24 79.2021 6.3848)">
		</image>
		<g>
			<circle fill="#AFAFAF" cx="89.236" cy="16.418" r="1.033"/>
		</g>
	</g>
	<g>
		
			<image overflow="visible" opacity="0.25" width="84" height="84" xlink:href="B862016B75E1A2E4.png"  transform="matrix(0.24 0 0 0.24 47.3955 6.3848)">
		</image>
		<g>
			<circle fill="#AFAFAF" cx="57.43" cy="16.418" r="1.033"/>
		</g>
	</g>
</g>
</svg>
